<?xml version="1.0" standalone="no"?>
<!DOCTYPE svg PUBLIC "-//W3C//DTD SVG 20010904//EN"
 "http://www.w3.org/TR/2001/REC-SVG-20010904/DTD/svg10.dtd">
<svg version="1.0" xmlns="http://www.w3.org/2000/svg"
 width="512.000000pt" height="510.000000pt" viewBox="0 0 512.000000 510.000000"
 preserveAspectRatio="xMidYMid meet">

<g transform="translate(0.000000,510.000000) scale(0.100000,-0.100000)"
fill="#000000" stroke="none">
<path d="M2335 4114 c-121 -69 -267 -154 -325 -188 -58 -34 -112 -65 -120 -69
-8 -3 -94 -53 -190 -109 l-175 -104 -3 -107 c-1 -61 1 -107 7 -107 12 0 189
105 212 126 11 9 19 13 20 8 0 -5 0 -53 -1 -108 -1 -88 1 -98 15 -92 32 12
450 258 456 268 12 19 14 -6 11 -103 l-3 -97 -177 -101 c-97 -55 -289 -166
-427 -245 l-250 -144 -3 -111 c-1 -61 -1 -111 2 -111 2 0 64 35 137 78 74 43
211 123 304 176 94 54 189 111 213 127 23 16 45 29 47 29 3 0 5 -44 4 -97 -1
-54 -1 -101 0 -106 1 -8 105 47 134 71 9 8 18 13 20 11 1 -2 1 -48 -1 -101
l-3 -97 -107 -62 c-59 -35 -190 -111 -292 -169 -102 -59 -277 -160 -389 -224
-112 -65 -218 -126 -236 -136 -18 -10 -63 -37 -100 -59 -37 -23 -71 -41 -76
-41 -5 0 -9 -52 -9 -116 0 -64 4 -114 8 -112 18 7 419 242 445 259 l27 20 0
-106 c0 -58 2 -105 5 -105 3 0 53 29 112 64 60 35 162 94 228 131 66 37 184
105 261 151 78 46 144 84 146 84 3 0 3 -22 0 -50 l-5 -50 47 -20 c25 -12 46
-23 46 -25 0 -2 -28 -19 -62 -38 -177 -96 -438 -249 -438 -256 0 -3 38 -26 85
-51 47 -25 85 -48 85 -51 0 -4 -8 -10 -17 -13 -32 -12 -343 -191 -343 -197 0
-4 40 -30 90 -58 l89 -52 43 24 c24 14 75 42 113 64 70 41 264 151 320 183 17
10 115 66 218 125 l188 107 71 -41 c39 -23 74 -41 79 -41 4 0 10 -4 13 -9 4
-5 -15 -19 -41 -32 -27 -13 -76 -40 -111 -61 -34 -21 -67 -38 -73 -38 -28 0 6
-28 86 -71 83 -45 88 -49 65 -58 -32 -12 -153 -80 -465 -261 -233 -135 -414
-240 -462 -268 -24 -13 -43 -25 -43 -27 0 -8 171 -105 185 -105 8 0 32 11 53
24 20 13 105 62 187 109 83 46 249 142 370 212 121 70 243 140 270 155 28 16
117 67 199 114 82 47 153 86 157 86 4 0 39 -18 78 -40 39 -22 75 -40 81 -40
19 0 10 -19 -12 -26 -11 -3 -60 -29 -107 -56 -47 -27 -165 -95 -261 -150 -96
-56 -179 -104 -183 -108 -7 -7 105 -79 146 -93 23 -8 22 -20 -4 -32 -58 -28
-239 -131 -239 -137 0 -7 172 -108 185 -108 4 0 64 33 134 74 182 106 820 474
886 511 11 6 46 26 78 44 l57 33 0 884 0 884 -41 25 c-22 15 -55 34 -72 44
-18 10 -122 70 -232 133 -742 427 -897 516 -955 548 -36 21 -102 58 -146 84
-45 25 -86 46 -91 46 -4 0 -107 -57 -228 -126z"/>
<path d="M1178 3441 l-147 -86 -1 -113 0 -114 33 21 c17 11 89 53 159 93 l128
73 0 108 c0 79 -3 107 -12 106 -7 -1 -79 -40 -160 -88z"/>
<path d="M1113 2782 l-83 -47 0 -107 c0 -60 3 -108 7 -108 3 0 44 21 90 47
l83 47 0 108 c0 59 -3 108 -7 107 -5 0 -45 -21 -90 -47z"/>
<path d="M1382 1488 c-60 -36 -80 -53 -73 -61 5 -7 48 -32 94 -57 l85 -44 83
48 c46 27 88 52 92 56 8 7 -168 111 -187 109 -6 0 -48 -23 -94 -51z"/>
<path d="M2475 875 c-49 -30 -91 -58 -92 -62 -3 -9 158 -103 177 -103 19 0
200 104 200 115 0 11 -167 105 -184 104 -6 0 -51 -25 -101 -54z"/>
</g>
</svg>
